<svg width="68" height="63" xmlns="http://www.w3.org/2000/svg"><g fill="#EC0B8C" fill-rule="nonzero"><path d="M32.531 25C30.425 25 29 26.437 29 28.513 29 30.563 30.425 32 32.531 32 34.607 32 36 30.563 36 28.513 36 26.411 34.607 25 32.531 25z"/><path d="M33.835 15.032c-.347-.02-.69-.032-1.027-.032-7.122 0-12.29 4.866-16.205 15.216-1.399 3.688-.102 6.884 1.233 8.916 2.854 4.346 8.459 7.495 13.945 7.836 4.311.266 8.48-1.136 11.726-3.96 3.246-2.825 5.185-6.73 5.46-10.997.274-4.266-1.15-8.382-4.008-11.59-2.857-3.205-6.809-5.12-11.124-5.389zm6.286 20.25c0 4.225-3.304 6.904-8.176 6.904-2.632 0-5.012-.828-6.72-1.96l1.68-3.233c1.372.94 3.052 1.492 4.676 1.492 2.324 0 3.724-1.216 3.724-3.066v-1.574c-.98 1.27-2.463 1.988-4.34 1.988-3.808 0-6.496-2.872-6.496-7.209 0-4.226 2.604-7.043 6.384-7.043 1.932-.028 3.445.69 4.452 1.989v-1.823h4.817V35.28z"/><path d="M18.027 13.76c-4.74 4.078-7.572 9.711-7.977 15.862-.405 6.15 1.666 12.082 5.831 16.703 7.397 8.213 18.034 8.83 33.474 1.943 5.379-2.395 7.41-7.02 8.166-10.48 1.596-7.297-.88-16.135-6.162-21.993-8.598-9.537-23.55-10.45-33.332-2.034zM51.81 31.77c-.302 4.656-2.438 8.918-6.014 12a17.936 17.936 0 0 1-11.768 4.36c-.384 0-.769-.013-1.154-.037-5.985-.369-12.106-3.783-15.23-8.496-2.206-3.328-2.69-6.875-1.393-10.26 4.337-11.353 10.49-16.631 18.885-16.097 4.756.294 9.11 2.383 12.26 5.884 3.148 3.499 4.717 7.99 4.414 12.647z"/><path d="M35.568 3.06c-7.513-.482-14.76 1.977-20.404 6.924-.458.402-.899.812-1.319 1.23-8.77 8.724-9.096 21.018-1.076 38.497 2.932 6.403 8.595 8.82 12.829 9.72 8.912 1.895 19.708-1.045 26.864-7.316.457-.4.9-.815 1.328-1.24 4.843-4.819 7.722-11.151 8.154-18.021.47-7.477-2.015-14.693-6.997-20.32C49.965 6.905 43.083 3.54 35.568 3.06zm22.154 35.325c-1.158 5.388-4.189 9.333-8.765 11.407-7.246 3.291-13.358 4.887-18.686 4.877-6.39-.01-11.748-2.409-15.923-7.129-4.343-4.905-6.502-11.202-6.08-17.73a24.3 24.3 0 0 1 7.15-15.749c.376-.373.764-.735 1.166-1.088C26.782 4.041 42.37 5.01 51.335 15.135c5.479 6.186 8.045 15.53 6.387 23.25z"/><path d="M66.081 30.26c-1.98-2.418-1.707-5.048-2.373-7.701-.66-2.652-3.46-7.022-3.95-8.638-.492-1.62-4.524-2.888-6.157-6.239-1.631-3.352-3.951-3.602-5.497-4.08-1.545-.479-6.24-2.092-7.185-1.85-.949.243-1.313-.027-2.14-.453-.822-.423-3.632-1.753-5.24-1.14-1.61.616-5.975.075-6.739.077-.763-.002-6.889 2.547-8.815 2.782-1.922.231-3.51 3.667-3.497 4.62.008.953-3.585 3.009-4.744 3.28-1.162.273-1.742 2.299-2.564 3.385-.826 1.09-1.437 2.904-1.118 4.46.314 1.557-1.539 2.071-1.539 2.071l-.751.954c-.753.953-.867 2.191-1.204 3.644-.332 1.45 1.497 2.45 1.26 3.125-.238.677-2.05 2.708-3.15 4.16s-.888 2.178.824 3.449c1.709 1.27 2.478 3.026 2.478 3.026s.088 3.41.988 8.022c.895 4.61 2.644 2.556 4.045 4.734 1.402 2.181 4.889 3.625 7.697 5.716 2.806 2.087 6.278 3.301 8.168 4.33 1.889 1.035 4.935.29 6.765.893 1.832.606 10.81-1.423 14.627-1.421 3.815 0 5.587-5.11 6.694-5.988 1.113-.878 4.632-3.175 6.86-6.622 2.23-3.445 4.03-7.589 6.605-11.159 2.577-3.566 1.64-5.019-.348-7.437zm-3.172 2.374c-.49 7.753-3.997 14.847-9.879 19.974-7.423 6.474-18.632 9.508-27.891 7.548C18.69 58.792 13.97 55.221 11.49 49.83c-3.954-8.578-5.871-15.81-5.86-22.11.012-6.932 2.44-12.834 7.224-17.57.422-.418.862-.827 1.32-1.227 5.882-5.13 13.431-7.68 21.26-7.18 7.827.499 14.997 3.987 20.187 9.823 5.19 5.834 7.778 13.317 7.288 21.07z"/></g></svg>