<svg width="99" height="92" xmlns="http://www.w3.org/2000/svg"><g fill="#EC0B8C" fill-rule="nonzero"><path d="M47.045 37C44.035 37 42 39.053 42 42.02c0 2.927 2.035 4.98 5.045 4.98C50.01 47 52 44.947 52 42.02c0-3.004-1.99-5.02-4.955-5.02z"/><path d="M48.942 22.048A24.154 24.154 0 0 0 47.448 22c-10.36 0-17.876 7.147-23.57 22.349-2.036 5.417-.149 10.11 1.793 13.095 4.151 6.383 12.303 11.008 20.283 11.509 6.27.391 12.336-1.668 17.056-5.817 4.722-4.15 7.543-9.885 7.941-16.151.4-6.267-1.67-12.312-5.829-17.022-4.156-4.708-9.903-7.52-16.18-7.915zm9.143 29.74c0 6.207-4.805 10.142-11.892 10.142-3.829 0-7.291-1.217-9.775-2.88l2.444-4.748c1.995 1.38 4.44 2.191 6.802 2.191 3.38 0 5.417-1.785 5.417-4.502v-2.313c-1.426 1.866-3.584 2.92-6.314 2.92-5.539 0-9.449-4.218-9.449-10.587 0-6.207 3.788-10.346 9.287-10.346 2.81-.04 5.01 1.014 6.476 2.922v-2.678h7.005v19.879z"/><path d="M26.706 20.449c-6.914 5.98-11.042 14.242-11.633 23.264-.591 9.02 2.43 17.72 8.504 24.496 10.787 12.047 26.299 12.953 48.815 2.85 7.845-3.511 10.806-10.296 11.91-15.37 2.327-10.702-1.285-23.665-8.987-32.256C62.777 9.445 40.97 8.105 26.705 20.449zm49.266 26.415c-.44 6.827-3.555 13.078-8.77 17.6a26.07 26.07 0 0 1-17.16 6.393c-.561 0-1.122-.019-1.684-.054-8.728-.54-17.654-5.549-22.21-12.46-3.218-4.882-3.922-10.085-2.032-15.048 6.324-16.652 15.297-24.393 27.541-23.609 6.936.43 13.286 3.495 17.879 8.629 4.591 5.132 6.878 11.72 6.436 18.549z"/><path d="M51.554 4.086c-10.928-.7-21.468 2.88-29.679 10.084a41.485 41.485 0 0 0-1.919 1.79C7.2 28.665 6.726 46.567 18.391 72.018c4.266 9.324 12.502 12.844 18.66 14.155 12.964 2.759 28.666-1.522 39.075-10.654a41.683 41.683 0 0 0 1.932-1.805c7.045-7.017 11.232-16.238 11.86-26.242.684-10.887-2.93-21.395-10.176-29.588C72.494 9.687 62.484 4.787 51.554 4.086zm32.223 51.44c-1.684 7.846-6.092 13.59-12.749 16.61-10.539 4.792-19.43 7.115-27.18 7.102-9.295-.016-17.087-3.508-23.16-10.381-6.317-7.143-9.457-16.312-8.843-25.819.564-8.733 4.235-16.792 10.4-22.93a36.578 36.578 0 0 1 1.695-1.585C38.774 5.515 61.45 6.927 74.488 21.67c7.968 9.008 11.701 22.613 9.29 33.855z"/><path d="M96.206 44.19c-2.884-3.532-2.486-7.372-3.454-11.247C91.79 29.071 87.715 22.688 87 20.33c-.716-2.367-6.586-4.218-8.964-9.11-2.375-4.896-5.753-5.26-8.003-5.96-2.25-.698-9.085-3.054-10.461-2.701-1.381.355-1.91-.04-3.114-.662-1.199-.617-5.29-2.56-7.631-1.664-2.343.9-8.697.11-9.81.113-1.111-.003-10.03 3.72-12.834 4.062-2.798.338-5.11 5.355-5.092 6.746.013 1.393-5.22 4.395-6.906 4.791-1.691.398-2.536 3.357-3.733 4.943-1.202 1.592-2.091 4.241-1.628 6.514.458 2.272-2.24 3.024-2.24 3.024l-1.094 1.393c-1.096 1.391-1.262 3.2-1.752 5.32-.483 2.118 2.179 3.577 1.834 4.564-.347.989-2.986 3.955-4.585 6.077-1.602 2.119-1.293 3.178 1.198 5.035 2.488 1.854 3.609 4.42 3.609 4.42s.127 4.979 1.438 11.713c1.304 6.733 3.85 3.733 5.89 6.914 2.04 3.185 7.117 5.294 11.205 8.346 4.085 3.048 9.14 4.821 11.891 6.325 2.75 1.51 7.185.423 9.85 1.303 2.667.885 15.736-2.078 21.295-2.075 5.554 0 8.134-7.463 9.746-8.744 1.62-1.283 6.743-4.638 9.987-9.67 3.246-5.031 5.867-11.083 9.616-16.296 3.752-5.208 2.387-7.33-.507-10.86zm-4.617 3.466c-.713 11.322-5.82 21.68-14.383 29.168C66.399 86.28 50.08 90.71 36.599 87.847c-9.388-1.993-16.26-7.207-19.87-15.08C10.97 60.24 8.18 49.678 8.196 40.478c.017-10.122 3.553-18.741 10.516-25.657a41.212 41.212 0 0 1 1.924-1.792C29.198 5.54 40.19 1.814 51.587 2.543c11.396.729 21.834 5.823 29.39 14.345 7.556 8.52 11.324 19.447 10.612 30.768z"/></g></svg>